<svg xmlns="http://www.w3.org/2000/svg" viewBox="648 423 699 270" fill="none" preserveAspectRatio="none">
  <path
    fill="#111111"
    d="M916 443.594C900.353 444.16 884.646 443.615 869 444.3C842.906 445.443 816.586 449.081 791 453.905C764.479 458.905 735.323 465.537 713 481.595C693.432 495.671 675.651 516.766 668.216 540C654.443 583.038 674.553 631.012 714 652.688C733.935 663.643 754.677 666.928 777 669.169C805.101 671.99 832.714 673 861 673C946.314 673 1031.73 673.695 1117 669.961C1153.47 668.363 1191.12 665.577 1227 658.4C1245.36 654.727 1264.33 650.89 1280 640.103C1306.55 621.829 1324.91 592.404 1326.91 560.001C1327.52 550.055 1325.77 540.659 1324.05 531C1322.83 524.178 1323.5 517.835 1321.25 511C1315.96 494.931 1301.31 479.942 1287 471.475C1274.84 464.281 1259.75 461.144 1246 458.75C1218.82 454.019 1191.45 453.803 1164 452.745C1114.04 450.817 1063.84 450.371 1014 447.791C990.881 446.594 967.699 445.967 944.576 445.149C935.073 444.813 925.545 443.249 916 443.594z"
  />
  <path
    fill="#ffffff"
    d="M902 453.424C887.216 455.366 871.882 454.07 857 455.089C831.839 456.813 806.693 460.629 782 465.714C766.078 468.994 748.905 471.703 734 478.442C725.663 482.212 717.281 488.227 710 493.749C677.157 518.66 657.341 566.654 676.323 606C681.128 615.96 689.847 625.49 698 632.829C705.731 639.79 715.294 645.726 725 649.536C746.775 658.084 769.994 659.972 793 662.17C827.458 665.462 862.314 665 897 665C966.637 665 1036.38 663.813 1106 660.209C1143.76 658.255 1181.54 656.497 1219 649.916C1230.66 647.867 1244.22 644.769 1255.09 640.041C1277.08 630.476 1295.31 610.731 1306.69 590C1326.6 553.717 1321.35 496.877 1281 477.259C1262.72 468.371 1240.96 466.836 1221 465.961L1153 462.961C1092.7 460.32 1032.34 457.464 972 455.985C948.93 455.42 925.099 450.391 902 453.424z"
  />
</svg>
